<svg width="14" height="14" viewBox="0 0 14 14" fill="none" xmlns="http://www.w3.org/2000/svg"> <path fill-rule="evenodd" clip-rule="evenodd" d="M5.11783 1.97875C5.19912 1.01049 6.01077 0.25 7.00003 0.25C7.9893 0.25 8.80094 1.01049 8.88223 1.97875C8.99658 2.02163 9.10908 2.0683 9.21955 2.11861C9.96169 1.49134 11.0734 1.52748 11.773 2.22703C12.4725 2.92657 12.5087 4.0383 11.8814 4.78044C11.9317 4.89093 11.9784 5.00343 12.0213 5.1178C12.9895 5.19909 13.75 6.01073 13.75 7C13.75 7.98927 12.9895 8.80091 12.0213 8.8822C11.9784 8.99659 11.9317 9.10911 11.8814 9.21962C12.5086 9.96175 12.4724 11.0734 11.7729 11.773C11.0734 12.4725 9.96164 12.5087 9.2195 11.8814C9.10904 11.9317 8.99657 11.9784 8.88223 12.0213C8.80094 12.9895 7.9893 13.75 7.00003 13.75C6.01077 13.75 5.19912 12.9895 5.11783 12.0213C5.00347 11.9784 4.89096 11.9317 4.78047 11.8814C4.03834 12.5087 2.92659 12.4725 2.22703 11.773C1.52747 11.0734 1.49134 9.96166 2.11864 9.21952C2.06833 9.10904 2.02166 8.99655 1.97878 8.8822C1.01052 8.80091 0.250031 7.98927 0.250031 7C0.250031 6.01073 1.01052 5.19909 1.97878 5.1178C2.02165 5.00347 2.06832 4.891 2.11861 4.78054C1.49127 4.0384 1.52738 2.92661 2.22696 2.22703C2.92652 1.52747 4.03829 1.49134 4.78043 2.11865C4.89093 2.06833 5.00345 2.02164 5.11783 1.97875ZM7.00003 1.25C6.50911 1.25 6.11114 1.64797 6.11114 2.13889V2.34019C6.11114 2.5614 5.96579 2.75632 5.75377 2.81942C5.464 2.90566 5.18679 3.02125 4.92555 3.16282C4.73099 3.26825 4.49026 3.23325 4.33378 3.07677L4.19114 2.93414C3.84401 2.587 3.2812 2.587 2.93407 2.93414C2.58693 3.28127 2.58693 3.84408 2.93407 4.19122L3.07673 4.33388C3.2332 4.49035 3.26821 4.73107 3.16279 4.92564C3.02125 5.18684 2.90568 5.46401 2.81945 5.75374C2.75635 5.96575 2.56143 6.11111 2.34022 6.11111H2.13892C1.648 6.11111 1.25003 6.50908 1.25003 7C1.25003 7.49092 1.648 7.88889 2.13892 7.88889H2.34022C2.56143 7.88889 2.75635 8.03425 2.81945 8.24626C2.90568 8.536 3.02126 8.81319 3.16281 9.07441C3.26824 9.26897 3.23323 9.50969 3.07675 9.66617L2.93414 9.80879C2.58701 10.1559 2.58701 10.7187 2.93414 11.0659C3.28127 11.413 3.84408 11.413 4.19122 11.0659L4.53168 11.4063L4.19122 11.0659L4.33382 10.9233C4.4903 10.7668 4.73103 10.7318 4.92559 10.8372C5.18682 10.9788 5.46402 11.0943 5.75377 11.1806C5.96579 11.2437 6.11114 11.4386 6.11114 11.6598V11.8611C6.11114 12.352 6.50911 12.75 7.00003 12.75C7.49095 12.75 7.88892 12.352 7.88892 11.8611V11.6598C7.88892 11.4386 8.03428 11.2437 8.2463 11.1806C8.53602 11.0944 8.81319 10.9788 9.07439 10.8372C9.26896 10.7318 9.50968 10.7668 9.66615 10.9233L9.80872 11.0659C10.1558 11.413 10.7187 11.413 11.0658 11.0659C11.4129 10.7187 11.4129 10.1559 11.0658 9.80878L10.9233 9.66625C10.7668 9.50977 10.7318 9.26904 10.8372 9.07448C10.9788 8.81324 11.0944 8.53603 11.1806 8.24626C11.2437 8.03425 11.4386 7.88889 11.6598 7.88889H11.8611C12.3521 7.88889 12.75 7.49092 12.75 7C12.75 6.50908 12.3521 6.11111 11.8611 6.11111H11.6598C11.4386 6.11111 11.2437 5.96575 11.1806 5.75374C11.0944 5.46398 10.9788 5.18679 10.8372 4.92556C10.7318 4.731 10.7668 4.49027 10.9233 4.33379L11.0659 4.19121C11.413 3.84408 11.413 3.28127 11.0659 2.93414L11.4194 2.58058L11.0659 2.93414C10.7187 2.587 10.1559 2.587 9.80879 2.93414L9.46743 2.59277L9.80879 2.93414L9.6662 3.07672C9.50972 3.2332 9.269 3.26821 9.07444 3.16278C8.81322 3.02123 8.53603 2.90565 8.24629 2.81942C8.03428 2.75632 7.88892 2.5614 7.88892 2.34019V2.13889C7.88892 1.64797 7.49095 1.25 7.00003 1.25ZM7.00003 5.41667C6.12558 5.41667 5.4167 6.12555 5.4167 7C5.4167 7.87445 6.12558 8.58333 7.00003 8.58333C7.87448 8.58333 8.58336 7.87445 8.58336 7C8.58336 6.12555 7.87448 5.41667 7.00003 5.41667ZM4.4167 7C4.4167 5.57327 5.5733 4.41667 7.00003 4.41667C8.42677 4.41667 9.58336 5.57327 9.58336 7C9.58336 8.42674 8.42677 9.58333 7.00003 9.58333C5.5733 9.58333 4.4167 8.42674 4.4167 7Z" fill="#292929"/> </svg>