<svg width="21" height="20" viewBox="0 0 21 20" fill="none" xmlns="http://www.w3.org/2000/svg">
<path fill-rule="evenodd" clip-rule="evenodd" d="M10.6699 4.25C9.79547 4.25 9.08659 4.95888 9.08659 5.83333V7.41667H12.2533V5.83333C12.2533 4.95888 11.5444 4.25 10.6699 4.25ZM13.2533 7.41667V5.83333C13.2533 4.4066 12.0967 3.25 10.6699 3.25C9.24319 3.25 8.08659 4.4066 8.08659 5.83333V7.41667H7.1977C5.38743 7.41667 3.91992 8.88418 3.91992 10.6944V13.4722C3.91992 15.2825 5.38743 16.75 7.1977 16.75H14.1421C15.9524 16.75 17.4199 15.2825 17.4199 13.4722V10.6944C17.4199 8.88418 15.9524 7.41667 14.1421 7.41667H13.2533ZM7.1977 8.41667C5.93972 8.41667 4.91992 9.43646 4.91992 10.6944V13.4722C4.91992 14.7302 5.93972 15.75 7.1977 15.75H14.1421C15.4001 15.75 16.4199 14.7302 16.4199 13.4722V10.6944C16.4199 9.43646 15.4001 8.41667 14.1421 8.41667H7.1977ZM7.39214 12.0806C7.39214 11.8045 7.616 11.5806 7.89214 11.5806H7.903C8.17914 11.5806 8.403 11.8045 8.403 12.0806C8.403 12.3568 8.17914 12.5806 7.903 12.5806H7.89214C7.616 12.5806 7.39214 12.3568 7.39214 12.0806ZM10.1699 12.0806C10.1699 11.8045 10.3938 11.5806 10.6699 11.5806H10.6808C10.9569 11.5806 11.1808 11.8045 11.1808 12.0806C11.1808 12.3568 10.9569 12.5806 10.6808 12.5806H10.6699C10.3938 12.5806 10.1699 12.3568 10.1699 12.0806ZM12.9477 12.0806C12.9477 11.8045 13.1716 11.5806 13.4477 11.5806H13.4586C13.7347 11.5806 13.9586 11.8045 13.9586 12.0806C13.9586 12.3568 13.7347 12.5806 13.4586 12.5806H13.4477C13.1716 12.5806 12.9477 12.3568 12.9477 12.0806Z" fill="#292929"/>
</svg>
