<svg width="21" height="20" viewBox="0 0 21 20" fill="none" xmlns="http://www.w3.org/2000/svg">
<path fill-rule="evenodd" clip-rule="evenodd" d="M6.4165 4.125C5.03579 4.125 3.9165 5.24429 3.9165 6.625V11.75C3.9165 13.1307 5.03579 14.25 6.4165 14.25H10.7677C11.4167 15.2293 12.5287 15.875 13.7915 15.875C15.7935 15.875 17.4165 14.252 17.4165 12.25C17.4165 12.1581 17.4131 12.067 17.4064 11.9768C17.4131 11.9021 17.4165 11.8264 17.4165 11.75V6.625C17.4165 5.24429 16.2972 4.125 14.9165 4.125H6.4165ZM16.4165 9.74999V8.32621L15.238 8.92511C15.6849 9.11981 16.085 9.40198 16.4165 9.74999ZM13.6128 8.62933L16.4165 7.20449V6.625C16.4165 5.79657 15.7449 5.125 14.9165 5.125H6.4165C5.58808 5.125 4.9165 5.79657 4.9165 6.625V7.20449L10.2134 9.89638C10.4554 10.0193 10.7348 10.0378 10.988 9.95183C11.6175 9.18474 12.5557 8.68065 13.6128 8.62933ZM10.3929 10.9861C10.1752 10.9561 9.96134 10.89 9.7604 10.7879L4.9165 8.32622V11.75C4.9165 12.5784 5.58808 13.25 6.4165 13.25H10.3062C10.2152 12.9324 10.1665 12.5969 10.1665 12.25C10.1665 11.8055 10.2465 11.3796 10.3929 10.9861ZM13.7915 12.4375C14.3093 12.4375 14.729 12.0178 14.729 11.5C14.729 10.9822 14.3093 10.5625 13.7915 10.5625C13.2737 10.5625 12.854 10.9822 12.854 11.5C12.854 12.0178 13.2737 12.4375 13.7915 12.4375ZM13.7915 12.4375C14.6199 12.4375 15.2915 13.1091 15.2915 13.9375H12.2915C12.2915 13.1091 12.9631 12.4375 13.7915 12.4375Z" fill="black"/>
</svg>
