<svg width="24" height="24" viewBox="0 0 24 24" fill="none" xmlns="http://www.w3.org/2000/svg">
<path fill-rule="evenodd" clip-rule="evenodd" d="M7 6C5.34315 6 4 7.34315 4 9V15.15C4 16.8069 5.34315 18.15 7 18.15H17.2C18.8569 18.15 20.2 16.8069 20.2 15.15V9C20.2 7.34315 18.8569 6 17.2 6H7ZM19 9.69538V9C19 8.00589 18.1941 7.2 17.2 7.2H7C6.00589 7.2 5.2 8.00589 5.2 9V9.69539L11.5563 12.9257C11.898 13.0993 12.302 13.0993 12.6437 12.9257L19 9.69538ZM5.2 11.0415V15.15C5.2 16.1441 6.00589 16.95 7 16.95H17.2C18.1941 16.95 19 16.1441 19 15.15V11.0415L13.1873 13.9954C12.504 14.3427 11.696 14.3427 11.0127 13.9954L5.2 11.0415Z" fill="#656565"/>
</svg>
