<svg width="40" height="40" viewBox="0 0 40 40" fill="none" xmlns="http://www.w3.org/2000/svg">
<rect width="40" height="40" rx="20" fill="#FAFAFA"/>
<g clip-path="url(#clip0_1474_12011)">
<path d="M9.62059 19.1934C9.86245 19.1749 10.0884 19.1213 10.2975 19.0326C10.507 18.944 10.6792 18.8154 10.8141 18.6475C10.9488 18.4791 11.0164 18.2549 11.0164 17.9747C11.0164 17.5544 10.8772 17.2324 10.5984 17.0079C10.32 16.7837 9.99952 16.6716 9.63764 16.6716C9.13594 16.6716 8.75719 16.8371 8.50214 17.1676C8.24635 17.4981 8.12352 17.9153 8.13285 18.4177H6.24292C6.26171 17.9153 6.35255 17.4564 6.51508 17.0425C6.67797 16.6289 6.90627 16.2738 7.19996 15.9775C7.49309 15.6812 7.84489 15.4525 8.2545 15.2901C8.66411 15.128 9.12069 15.0469 9.62357 15.0469C10.0146 15.0469 10.4058 15.1053 10.7968 15.2217C11.1882 15.3382 11.5395 15.513 11.8518 15.7459C12.1639 15.9788 12.4175 16.2626 12.613 16.5984C12.8084 16.9338 12.9067 17.3202 12.9067 17.7578C12.9067 18.2331 12.7928 18.6523 12.5658 19.0157C12.3386 19.3792 11.9983 19.6258 11.5445 19.7561V19.7842C12.0825 19.9054 12.5043 20.1663 12.8108 20.567C13.1169 20.9678 13.2698 21.4476 13.2698 22.0064C13.2698 22.519 13.1697 22.9756 12.9693 23.3764C12.7687 23.7774 12.501 24.1124 12.1655 24.383C11.8302 24.6529 11.4433 24.8581 11.005 24.9976C10.567 25.1368 10.1103 25.207 9.63546 25.207C9.08541 25.207 8.58484 25.1277 8.13242 24.9695C7.6805 24.8104 7.29584 24.5796 6.97907 24.2758C6.66205 23.9724 6.4177 23.6019 6.24534 23.1638C6.07261 22.7258 5.99123 22.2231 6.00075 21.6552H7.89062C7.89971 21.916 7.94171 22.165 8.01675 22.4023C8.09141 22.6397 8.199 22.8448 8.33906 23.0169C8.47912 23.189 8.6539 23.3268 8.86421 23.4292C9.07428 23.5312 9.3241 23.5823 9.61337 23.5823C10.0616 23.5823 10.44 23.4456 10.748 23.1716C11.0563 22.8975 11.2103 22.5237 11.2103 22.0499C11.2103 21.6779 11.136 21.3944 10.9878 21.1994C10.8391 21.0041 10.6536 20.8628 10.4301 20.7741C10.2067 20.686 9.96219 20.6349 9.69712 20.6211C9.43187 20.607 9.17831 20.5998 8.93683 20.5998V19.1934C9.15062 19.212 9.37854 19.212 9.62059 19.1934Z" fill="#1E76C0"/>
<path d="M19.0219 16.3087C20.1272 16.3087 21.2219 16.7562 22.0251 17.5366L22.2395 17.7446V16.0659L22.1858 16.0282C21.2672 15.3835 20.2543 15.0703 19.089 15.0703C16.1068 15.0703 13.6807 17.3547 13.6807 20.1626C13.6807 22.9289 16.1068 25.1794 19.089 25.1794C20.1773 25.1794 21.2763 24.8395 22.1843 24.2228L22.2395 24.185V22.5116L22.0266 22.7116C21.1957 23.4929 20.1101 23.941 19.0489 23.941C16.888 23.941 15.0623 22.1934 15.0623 20.1247C15.0623 18.0563 16.8755 16.3087 19.0219 16.3087Z" fill="#706D6E"/>
<path d="M22.2568 18.2109V22.1125L23.9625 20.0805L22.2568 18.2109Z" fill="#1E76C0"/>
<path d="M32.5845 25.1172L28.5714 20.2123L32.5838 15.3203H30.4553L27.5123 18.9173L24.5695 15.3203H22.4414L26.4538 20.2123L22.4404 25.1172H24.5479L27.5123 21.5035L30.4773 25.1172H32.5845Z" fill="#706D6E"/>
<path d="M33.3839 24.4996C33.4584 24.4996 33.5892 24.5137 33.5892 24.418C33.5892 24.3561 33.5076 24.3449 33.443 24.3449H33.2827V24.4996H33.3839ZM33.6651 24.8612H33.5639L33.3839 24.584H33.2827V24.8612H33.1984V24.2605H33.4599C33.5681 24.2605 33.6734 24.29 33.6734 24.4194C33.6734 24.5375 33.5905 24.5813 33.4837 24.584L33.6651 24.8612ZM33.8703 24.5643C33.8703 24.3055 33.6552 24.1 33.4035 24.1C33.152 24.1 32.9369 24.3055 32.9369 24.5643C32.9369 24.8231 33.152 25.0286 33.4035 25.0286C33.6552 25.0286 33.8703 24.8231 33.8703 24.5643ZM32.8525 24.5643C32.8525 24.2591 33.0958 24.0156 33.4035 24.0156C33.7115 24.0156 33.9546 24.2591 33.9546 24.5643C33.9546 24.8695 33.7115 25.113 33.4035 25.113C33.0958 25.113 32.8525 24.8695 32.8525 24.5643Z" fill="#5B6065"/>
</g>
<defs>
<clipPath id="clip0_1474_12011">
<rect width="28" height="10.2044" fill="white" transform="translate(6 15)"/>
</clipPath>
</defs>
</svg>
