<svg width="40" height="40" viewBox="0 0 40 40" fill="none" xmlns="http://www.w3.org/2000/svg">
<path fill-rule="evenodd" clip-rule="evenodd" d="M10 11.2016C10 10.3179 10.7163 9.60156 11.6 9.60156H28.4C29.2837 9.60156 30 10.3179 30 11.2016V14.4016C30 15.2852 29.2837 16.0016 28.4 16.0016H11.6C10.7163 16.0016 10 15.2852 10 14.4016V11.2016ZM12.3 12.8016C12.3 12.4702 12.5686 12.2016 12.9 12.2016H23.9C24.2314 12.2016 24.5 12.4702 24.5 12.8016C24.5 13.1329 24.2314 13.4016 23.9 13.4016H12.9C12.5686 13.4016 12.3 13.1329 12.3 12.8016ZM26.5 11.8016C26.0582 11.8016 25.7 12.1597 25.7 12.6016V13.0016C25.7 13.4434 26.0582 13.8016 26.5 13.8016H26.9C27.3418 13.8016 27.7 13.4434 27.7 13.0016V12.6016C27.7 12.1597 27.3418 11.8016 26.9 11.8016H26.5Z" fill="#1B99D5"/>
<path fill-rule="evenodd" clip-rule="evenodd" d="M10 18.4016C10 17.5179 10.7163 16.8016 11.6 16.8016H28.4C29.2837 16.8016 30 17.5179 30 18.4016V21.6016C30 22.4852 29.2837 23.2016 28.4 23.2016H11.6C10.7163 23.2016 10 22.4852 10 21.6016V18.4016ZM12.3 20.0016C12.3 19.6702 12.5686 19.4016 12.9 19.4016H23.9C24.2314 19.4016 24.5 19.6702 24.5 20.0016C24.5 20.3329 24.2314 20.6016 23.9 20.6016H12.9C12.5686 20.6016 12.3 20.3329 12.3 20.0016ZM26.5 19.0016C26.0582 19.0016 25.7 19.3597 25.7 19.8016V20.2016C25.7 20.6434 26.0582 21.0016 26.5 21.0016H26.9C27.3418 21.0016 27.7 20.6434 27.7 20.2016V19.8016C27.7 19.3597 27.3418 19.0016 26.9 19.0016H26.5Z" fill="#1B99D5"/>
<path fill-rule="evenodd" clip-rule="evenodd" d="M10 25.6016C10 24.7179 10.7163 24.0016 11.6 24.0016H28.4C29.2837 24.0016 30 24.7179 30 25.6016V28.8016C30 29.6852 29.2837 30.4016 28.4 30.4016H11.6C10.7163 30.4016 10 29.6852 10 28.8016V25.6016ZM12.3 27.2016C12.3 26.8702 12.5686 26.6016 12.9 26.6016H23.9C24.2314 26.6016 24.5 26.8702 24.5 27.2016C24.5 27.5329 24.2314 27.8016 23.9 27.8016H12.9C12.5686 27.8016 12.3 27.5329 12.3 27.2016ZM26.5 26.2016C26.0582 26.2016 25.7 26.5597 25.7 27.0016V27.4016C25.7 27.8434 26.0582 28.2016 26.5 28.2016H26.9C27.3418 28.2016 27.7 27.8434 27.7 27.4016V27.0016C27.7 26.5597 27.3418 26.2016 26.9 26.2016H26.5Z" fill="#1B99D5"/>
</svg>
