<svg width="40" height="40" viewBox="0 0 40 40" fill="none" xmlns="http://www.w3.org/2000/svg">
<rect width="40" height="40" rx="20" fill="#292929" fill-opacity="0.03"/>
<g clip-path="url(#clip0_1474_11925)">
<path d="M9.63636 28.9632H13.4545V19.7081L8 15.625V27.3299C8 28.2337 8.73364 28.9632 9.63636 28.9632Z" fill="#4285F4"/>
<path d="M26.5459 28.9632H30.3641C31.2695 28.9632 32.0004 28.2309 32.0004 27.3299V15.625L26.5459 19.7081" fill="#34A853"/>
<path d="M26.5459 12.6301V19.7075L32.0004 15.6244V13.4467C32.0004 11.4269 29.6904 10.2755 28.0732 11.4868" fill="#FBBC04"/>
<path d="M13.4541 19.7102V12.6328L19.9996 17.5326L26.545 12.6328V19.7102L19.9996 24.61" fill="#EA4335"/>
<path d="M8 13.4467V15.6244L13.4545 19.7075V12.6301L11.9273 11.4868C10.3073 10.2755 8 11.4269 8 13.4467Z" fill="#C5221F"/>
</g>
<defs>
<clipPath id="clip0_1474_11925">
<rect width="24" height="17.9657" fill="white" transform="translate(8 11)"/>
</clipPath>
</defs>
</svg>
