<svg width="40" height="40" viewBox="0 0 40 40" fill="none" xmlns="http://www.w3.org/2000/svg">
<rect width="40" height="40" rx="20" fill="#FAFAFA"/>
<path d="M10 12.9998C10 12.3371 10.5373 11.7998 11.2 11.7998H20.8C21.4627 11.7998 22 12.3371 22 12.9998V14.9998C22 15.6625 21.4627 16.1998 20.8 16.1998H11.2C10.5373 16.1998 10 15.6625 10 14.9998V12.9998Z" fill="#D75A4A"/>
<path d="M10 24.9998C10 24.3371 10.5373 23.7998 11.2 23.7998H20.8C21.4627 23.7998 22 24.3371 22 24.9998V26.9998C22 27.6625 21.4627 28.1998 20.8 28.1998H11.2C10.5373 28.1998 10 27.6625 10 26.9998V24.9998Z" fill="#D75A4A"/>
<path d="M18 18.9998C18 18.3371 18.5373 17.7998 19.2 17.7998H28.8C29.4627 17.7998 30 18.3371 30 18.9998V20.9998C30 21.6625 29.4627 22.1998 28.8 22.1998H19.2C18.5373 22.1998 18 21.6625 18 20.9998V18.9998Z" fill="#D75A4A"/>
<path d="M23.6 12.9998C23.6 12.3371 24.1373 11.7998 24.8 11.7998H28.8C29.4627 11.7998 30 12.3371 30 12.9998V14.9998C30 15.6625 29.4627 16.1998 28.8 16.1998H24.8C24.1373 16.1998 23.6 15.6625 23.6 14.9998V12.9998Z" fill="#ED7161"/>
<path d="M23.6 24.9998C23.6 24.3371 24.1373 23.7998 24.8 23.7998H28.8C29.4627 23.7998 30 24.3371 30 24.9998V26.9998C30 27.6625 29.4627 28.1998 28.8 28.1998H24.8C24.1373 28.1998 23.6 27.6625 23.6 26.9998V24.9998Z" fill="#ED7161"/>
<path d="M10 18.9998C10 18.3371 10.5373 17.7998 11.2 17.7998H15.2C15.8627 17.7998 16.4 18.3371 16.4 18.9998V20.9998C16.4 21.6625 15.8627 22.1998 15.2 22.1998H11.2C10.5373 22.1998 10 21.6625 10 20.9998V18.9998Z" fill="#ED7161"/>
</svg>
