<svg width="41" height="40" viewBox="0 0 41 40" fill="none" xmlns="http://www.w3.org/2000/svg">
<rect x="0.333008" width="40" height="40" rx="20" fill="#FAFAFA"/>
<g clip-path="url(#clip0_1474_12075)">
<path d="M19.4543 12.7509C23.1154 12.4872 26.8614 13.857 29.4744 16.437C29.8168 16.7894 29.7721 17.406 29.4109 17.729C29.0791 18.1201 28.4148 18.127 28.0724 17.746C25.8371 15.594 22.6811 14.4304 19.5821 14.6618C17.0077 14.8274 14.5138 15.9363 12.6457 17.7124C12.4796 17.8822 12.2675 18.0216 12.0232 18.0336C11.4112 18.1053 10.8453 17.4658 10.9773 16.8672C11.0146 16.6523 11.1526 16.4733 11.3104 16.3302C13.4975 14.2362 16.4335 12.9501 19.4543 12.7509Z" fill="#0089D6"/>
<path d="M19.3631 16.3418C22.1681 16.0367 25.0807 17.0706 27.0656 19.0749C27.3757 19.4292 27.3371 20.0085 26.9925 20.3269C26.6782 20.7116 26.0446 20.7548 25.6885 20.406C24.4176 19.1531 22.6995 18.3575 20.9179 18.2273C18.7543 18.0478 16.5439 18.8687 15.0034 20.3931C14.6482 20.7686 13.9865 20.7259 13.6668 20.3264C13.3221 20.0011 13.2936 19.4061 13.6244 19.0615C15.1511 17.5339 17.2157 16.5621 19.3631 16.3418Z" fill="#0089D6"/>
<path d="M19.7786 19.879C21.5487 19.7032 23.3787 20.381 24.6104 21.6629C24.9477 22.014 24.9086 22.6182 24.5533 22.943C24.2308 23.3323 23.5843 23.3586 23.2337 22.9936C22.5394 22.2809 21.5777 21.8304 20.582 21.7761C19.452 21.6956 18.3085 22.1419 17.5061 22.9361C17.3087 23.1579 17.0155 23.2941 16.7155 23.2587C16.0189 23.2099 15.5353 22.28 16.0152 21.7218C16.9843 20.6709 18.3605 20.0198 19.7786 19.879Z" fill="#0089D6"/>
<path d="M20.051 23.1889C21.1916 22.9975 22.3493 23.9394 22.3861 25.0961C22.4919 26.2303 21.4907 27.3066 20.3524 27.2817C19.3291 27.3171 18.3807 26.4682 18.291 25.4504C18.1451 24.382 18.9807 23.3122 20.051 23.1889Z" fill="#0089D6"/>
</g>
<defs>
<clipPath id="clip0_1474_12075">
<rect width="20" height="20" fill="white" transform="translate(10.333 10)"/>
</clipPath>
</defs>
</svg>
