<svg width="40" height="40" viewBox="0 0 40 40" fill="none" xmlns="http://www.w3.org/2000/svg">
<rect width="40" height="40" rx="20" fill="#FAFAFA"/>
<g clip-path="url(#clip0_2427_89519)">
<path d="M29.3878 31.9259H26.2222V14.8148C26.2222 14.2419 25.7582 13.7778 25.1852 13.7778H24.1015C23.7256 12.322 22.577 11.1735 21.1213 10.7976V7.03704C21.1213 6.46407 20.6572 6 20.0843 6C19.5113 6 19.0472 6.46407 19.0472 7.03704V10.7587C17.5124 11.0867 16.2887 12.2663 15.8985 13.7778H14.8148C14.2419 13.7778 13.7778 14.2419 13.7778 14.8148V31.9259H10.6122C10.0393 31.9259 9.5752 32.39 9.5752 32.963C9.5752 33.5359 10.0393 34 10.6122 34H29.3878C29.9608 34 30.4248 33.5359 30.4248 32.963C30.4248 32.39 29.9608 31.9259 29.3878 31.9259ZM19.9158 12.7407H20.0843C20.8504 12.7407 21.5206 13.1581 21.8796 13.7778H18.1191C18.4782 13.1581 19.1483 12.7407 19.9145 12.7407H19.9158ZM18.963 31.9259V25.963C18.963 25.3913 19.4283 24.9259 20 24.9259C20.5717 24.9259 21.037 25.3913 21.037 25.963V31.9259H18.963ZM23.1111 31.9259V25.963C23.1111 24.248 21.715 22.8519 20 22.8519C18.285 22.8519 16.8889 24.248 16.8889 25.963V31.9259H15.8519V15.8519H24.1482V31.9259H23.1111Z" fill="#088AFF"/>
<path d="M22.0741 16.7593H17.926C17.353 16.7593 16.8889 17.2234 16.8889 17.7963V20.9074C16.8889 21.4804 17.353 21.9445 17.926 21.9445H22.0741C22.6471 21.9445 23.1111 21.4804 23.1111 20.9074V17.7963C23.1111 17.2234 22.6471 16.7593 22.0741 16.7593ZM21.0371 19.8704H18.963V18.8334H21.0371V19.8704Z" fill="#088AFF"/>
<path d="M28.2535 19.8561C28.4428 20.0012 28.6645 20.0712 28.8861 20.0712C29.1972 20.0712 29.5045 19.9325 29.708 19.6668C30.5039 18.6337 30.9239 17.3983 30.9239 16.0916C30.9239 15.1246 30.6828 14.1666 30.2278 13.3201C29.9569 12.8159 29.3282 12.6266 28.8239 12.8975C28.3196 13.1685 28.1304 13.7972 28.4013 14.3014C28.6943 14.8472 28.8498 15.4668 28.8498 16.0916C28.8498 16.9355 28.5789 17.734 28.0643 18.4016C27.7143 18.8553 27.7985 19.5061 28.2522 19.8561H28.2535Z" fill="#088AFF"/>
<path d="M32.5508 10.5423C32.2643 10.0471 31.6291 9.87728 31.1339 10.1651C30.6387 10.4515 30.4689 11.0867 30.7567 11.5819C31.5215 12.9028 31.9259 14.413 31.9259 15.9491C31.9259 17.843 31.3297 19.6449 30.2019 21.1577C29.8597 21.6165 29.9543 22.266 30.4132 22.6095C30.5998 22.7482 30.8163 22.8156 31.0315 22.8156C31.3478 22.8156 31.6602 22.6717 31.8637 22.3982C33.2611 20.5238 33.9987 18.2941 33.9987 15.9491C33.9987 14.0475 33.4971 12.1782 32.5495 10.5423H32.5508Z" fill="#088AFF"/>
<path d="M10.2908 19.6681C10.4956 19.9339 10.8028 20.0726 11.1126 20.0726C11.333 20.0726 11.5559 20.0026 11.7452 19.8574C12.1989 19.5074 12.2832 18.8567 11.9345 18.403C11.4211 17.7367 11.1489 16.9381 11.1489 16.093C11.1489 15.4681 11.3045 14.8485 11.5974 14.3028C11.8683 13.7985 11.6791 13.1698 11.1748 12.8989C10.6706 12.628 10.0419 12.8172 9.77094 13.3215C9.31594 14.168 9.07483 15.1272 9.07483 16.093C9.07483 17.3996 9.49483 18.635 10.2908 19.6681Z" fill="#088AFF"/>
<path d="M9.79815 21.1589C8.67037 19.6448 8.07407 17.8443 8.07407 15.9504C8.07407 14.4143 8.47852 12.9041 9.24333 11.5832C9.52981 11.088 9.3613 10.4528 8.86611 10.1663C8.37093 9.87983 7.73574 10.0484 7.44926 10.5435C6.50167 12.1795 6 14.0487 6 15.9504C6 18.2941 6.73889 20.5237 8.135 22.3995C8.33852 22.673 8.65093 22.8169 8.96722 22.8169C9.18241 22.8169 9.40019 22.7495 9.58556 22.6108C10.0444 22.2685 10.1391 21.6191 9.79685 21.1589H9.79815Z" fill="#088AFF"/>
</g>
<defs>
<clipPath id="clip0_2427_89519">
<rect width="28" height="28" fill="white" transform="translate(6 6)"/>
</clipPath>
</defs>
</svg>
