<svg width="41" height="40" viewBox="0 0 41 40" fill="none" xmlns="http://www.w3.org/2000/svg">
<rect x="0.333008" width="40" height="40" rx="20" fill="#FAFAFA"/>
<mask id="mask0_1474_11998" style="mask-type:luminance" maskUnits="userSpaceOnUse" x="9" y="14" width="22" height="12">
<path d="M30.333 14.125H9.33301V25.875H30.333V14.125Z" fill="white"/>
</mask>
<g mask="url(#mask0_1474_11998)">
<path d="M30.0403 21.3497C30.0403 22.0936 29.7448 22.8071 29.2187 23.3331C28.6927 23.8592 27.9792 24.1547 27.2353 24.1547H26.4641C26.3837 23.2197 25.4189 22.4247 24.0552 22.0554C24.3991 21.7161 24.6343 21.2822 24.731 20.8088C24.8276 20.3354 24.7813 19.844 24.598 19.397C24.4145 18.95 24.1024 18.5676 23.7011 18.2986C23.2998 18.0295 22.8275 17.8858 22.3444 17.8858C21.8613 17.8858 21.3891 18.0295 20.9878 18.2986C20.5865 18.5676 20.2744 18.95 20.091 19.397C19.9076 19.844 19.8613 20.3354 19.9579 20.8088C20.0546 21.2822 20.2898 21.7161 20.6337 22.0554C19.985 22.2105 19.3821 22.5166 18.8739 22.9487C18.5533 22.7649 18.2099 22.6237 17.8526 22.5289C18.1483 22.2391 18.3509 21.8677 18.4348 21.4623C18.5186 21.0568 18.4797 20.6356 18.3232 20.2523C18.1667 19.869 17.8995 19.541 17.5559 19.3101C17.2122 19.0792 16.8075 18.9559 16.3935 18.9559C15.9795 18.9559 15.5748 19.0792 15.2312 19.3101C14.8875 19.541 14.6204 19.869 14.4638 20.2523C14.3073 20.6356 14.2685 21.0568 14.3523 21.4623C14.4361 21.8677 14.6388 22.2391 14.9345 22.5289C13.8595 22.8266 13.0764 23.4222 12.9096 24.1428H12.1384C11.4099 24.119 10.7192 23.813 10.2122 23.2892C9.7053 22.7655 9.42188 22.0652 9.42188 21.3363C9.42188 20.6074 9.7053 19.9071 10.2122 19.3834C10.7192 18.8596 11.4099 18.5536 12.1384 18.5298C12.4955 18.5311 12.849 18.5998 13.1806 18.7323C13.4054 18.2438 13.7662 17.8304 14.2198 17.5415C14.6735 17.2527 15.2007 17.1006 15.7384 17.1035C15.8069 17.1035 15.8754 17.1035 15.9409 17.1035C16.0813 16.3772 16.4386 15.7106 16.9657 15.1916C17.4928 14.6726 18.1649 14.3257 18.8933 14.1967C19.6217 14.0677 20.3721 14.1626 21.0454 14.4689C21.7187 14.7752 22.2833 15.2786 22.6646 15.9125C23.1007 15.78 23.5614 15.7493 24.0112 15.823C24.4611 15.8967 24.888 16.0726 25.2591 16.3372C25.6302 16.6019 25.9355 16.9482 26.1517 17.3495C26.3679 17.7509 26.4889 18.1964 26.5057 18.6519C26.9217 18.5387 27.3581 18.523 27.7811 18.6061C28.204 18.6892 28.6022 18.869 28.9442 19.1312C29.2864 19.3935 29.5632 19.7312 29.7533 20.1181C29.9434 20.505 30.0416 20.9306 30.0403 21.3616V21.3497ZM33.9112 23.8629V19.0986H32.4552V24.0683C32.4552 24.4018 32.3479 24.6252 32.0175 24.6252C31.9025 24.6262 31.7877 24.6152 31.6751 24.5924L31.6095 25.846C31.7651 25.8718 31.9223 25.8867 32.08 25.8907C33.4319 25.8788 33.9232 25.0956 33.9232 23.8629H33.9112ZM38.2408 24.1607H39.6642V19.0748H38.2169V21.9036C38.2315 22.0427 38.2161 22.1834 38.1717 22.3161C38.1273 22.4488 38.055 22.5705 37.9596 22.6729C37.8643 22.7753 37.748 22.8561 37.6188 22.9099C37.4896 22.9636 37.3504 22.989 37.2106 22.9845C36.6746 22.9845 36.4394 22.6331 36.4394 22.106V19.0748H34.9832V22.514C34.9832 23.6187 35.4776 24.3006 36.4394 24.3006C37.2433 24.3006 37.8656 23.7855 38.1544 22.8118H38.2617L38.2408 24.1607ZM42.1505 21.3318C42.1386 21.1926 42.1564 21.0525 42.2027 20.9207C42.2489 20.7888 42.3226 20.6683 42.4188 20.567C42.515 20.4657 42.6316 20.386 42.761 20.333C42.8902 20.2801 43.0293 20.2552 43.1689 20.2599C43.693 20.2599 43.9401 20.6142 43.9401 21.1294V24.1607H45.3962V21.3318C45.383 21.1934 45.3994 21.0537 45.4445 20.922C45.4895 20.7904 45.562 20.6699 45.6572 20.5685C45.7525 20.4671 45.8682 20.3871 45.9967 20.3339C46.1253 20.2807 46.2637 20.2554 46.4026 20.2599C46.9386 20.2599 47.1739 20.6142 47.1739 21.1294V24.1607H48.6418V20.7155C48.6418 19.6107 48.1387 18.9288 47.1531 18.9288C46.3163 18.9288 45.7387 19.4529 45.4617 20.4475H45.3426C45.2801 19.4946 44.8394 18.9288 43.9401 18.9288C43.1361 18.9288 42.5258 19.441 42.2368 20.4177H42.1297V19.0569H40.7063V24.1368H42.1625L42.1505 21.3318ZM54.5764 21.6296C54.5764 19.8817 53.9422 18.9497 52.8285 18.9497C52.0157 18.9497 51.4588 19.4857 51.1907 20.373H51.0955V19.0867H49.6365V25.7924H51.0955V22.8356H51.1789C51.4379 23.7289 51.9828 24.3244 52.8285 24.3244C53.9332 24.3036 54.5944 23.3716 54.5944 21.6266L54.5764 21.6296ZM52.1228 23.0202C51.5004 23.0202 51.0955 22.5497 51.0955 21.8291V21.4301C51.0955 20.7036 51.4915 20.239 52.1348 20.239C52.8285 20.239 53.1412 20.6797 53.1412 21.6117C53.1412 22.5438 52.8405 23.0172 52.1348 23.0172L52.1228 23.0202ZM58.7005 21.1472L60.0494 20.8882C59.8678 19.6584 59.2246 18.9408 57.715 18.9408C56.0981 18.9408 55.1124 19.9562 55.1124 21.6832C55.1124 23.4103 56.1188 24.3066 57.7238 24.3066C59.171 24.3066 59.8886 23.5681 60.0613 22.3889L58.7213 22.0673C58.6141 22.5914 58.3671 23.0321 57.715 23.0321C56.9645 23.0321 56.6012 22.508 56.6012 21.6058C56.6012 20.644 57.0181 20.2152 57.6941 20.2152C58.37 20.2152 58.5844 20.5964 58.7125 21.1442L58.7005 21.1472ZM62.3511 17.2762H60.907V24.1547H62.3631L62.3511 17.2762ZM65.7814 24.3036C67.3983 24.3036 68.3839 23.2852 68.3839 21.6237C68.3839 19.9621 67.3656 18.9437 65.7814 18.9437C64.1973 18.9437 63.1552 19.9293 63.1552 21.6237C63.1552 23.318 64.1438 24.3036 65.7934 24.3036H65.7814ZM65.7814 20.1586C66.5855 20.1586 66.9368 20.6827 66.9368 21.6028C66.9368 22.5229 66.5944 23.0619 65.7814 23.0619C64.9686 23.0619 64.6231 22.5259 64.6231 21.6028C64.6231 20.6797 64.9775 20.1586 65.7814 20.1586ZM72.4336 24.1547H73.8569V19.0748H72.392V21.9036C72.4061 22.0429 72.3901 22.1836 72.3454 22.3163C72.3007 22.4491 72.2281 22.5707 72.1324 22.673C72.0368 22.7754 71.9205 22.8561 71.7911 22.9098C71.6618 22.9635 71.5225 22.989 71.3825 22.9845C70.8495 22.9845 70.6113 22.6331 70.6113 22.106V19.0748H69.1551V22.514C69.1551 23.6187 69.6495 24.3006 70.6113 24.3006C71.4152 24.3006 72.0376 23.7855 72.3264 22.8118H72.4336V24.1547ZM78.121 24.1547H79.5771V17.2762H78.1181V20.3611H78.0227C77.7548 19.4678 77.2069 18.9378 76.394 18.9378C75.2803 18.9378 74.6371 19.8906 74.6371 21.6564C74.6371 23.3716 75.2803 24.3036 76.3731 24.3036C77.2188 24.3036 77.7756 23.708 78.0317 22.8147H78.1181L78.121 24.1547ZM77.0938 23.0172C76.3761 23.0172 76.0634 22.5676 76.0634 21.6564C76.0634 20.7452 76.3851 20.2539 77.0818 20.2539C77.725 20.2539 78.121 20.7244 78.121 21.4658V21.8678C78.1181 22.5676 77.7041 23.0172 77.0938 23.0172ZM33.9827 17.6574C33.9827 17.8129 33.9367 17.9648 33.8503 18.0941C33.7638 18.2234 33.641 18.3241 33.4975 18.3836C33.3538 18.4431 33.1957 18.4587 33.0433 18.4284C32.8907 18.3981 32.7506 18.3232 32.6407 18.2132C32.5308 18.1033 32.4559 17.9632 32.4256 17.8107C32.3953 17.6582 32.4108 17.5002 32.4704 17.3565C32.5299 17.2129 32.6306 17.0901 32.7599 17.0038C32.8891 16.9174 33.0412 16.8713 33.1966 16.8713C33.2999 16.8713 33.402 16.8916 33.4975 16.9311C33.5929 16.9706 33.6795 17.0285 33.7525 17.1015C33.8255 17.1745 33.8834 17.2612 33.9229 17.3565C33.9623 17.4519 33.9827 17.5541 33.9827 17.6574Z" fill="#002B49"/>
</g>
</svg>
