<svg width="41" height="40" viewBox="0 0 41 40" fill="none" xmlns="http://www.w3.org/2000/svg">
<rect x="0.666992" width="40" height="40" rx="20" fill="#FAFAFA"/>
<path d="M19.2674 16.3016C19.2674 18.0689 17.8347 19.5016 16.0674 19.5016C14.3001 19.5016 12.8674 18.0689 12.8674 16.3016C12.8674 14.5343 14.3001 13.1016 16.0674 13.1016C17.8347 13.1016 19.2674 14.5343 19.2674 16.3016Z" fill="#0AA7FF"/>
<path d="M28.4674 16.3016C28.4674 18.0689 27.0347 19.5016 25.2674 19.5016C23.5001 19.5016 22.0674 18.0689 22.0674 16.3016C22.0674 14.5343 23.5001 13.1016 25.2674 13.1016C27.0347 13.1016 28.4674 14.5343 28.4674 16.3016Z" fill="#0AA7FF"/>
<path d="M10.0674 23.5016C10.0674 21.2924 11.8582 19.5016 14.0674 19.5016H18.0674C20.2765 19.5016 22.0674 21.2924 22.0674 23.5016V24.5016C22.0674 25.827 20.9929 26.9016 19.6674 26.9016H12.4674C11.1419 26.9016 10.0674 25.827 10.0674 24.5016V23.5016Z" fill="#0AA7FF"/>
<path d="M19.2674 23.5016C19.2674 21.2924 21.0582 19.5016 23.2674 19.5016H27.2674C29.4765 19.5016 31.2674 21.2924 31.2674 23.5016V24.5016C31.2674 25.827 30.1929 26.9016 28.8674 26.9016H21.6674C20.3419 26.9016 19.2674 25.827 19.2674 24.5016V23.5016Z" fill="#0AA7FF"/>
<path d="M20.6674 20.4617C21.5243 21.1954 22.0674 22.285 22.0674 23.5016V24.5016C22.0674 25.4702 21.4936 26.3047 20.6674 26.6839C19.8412 26.3047 19.2674 25.4702 19.2674 24.5016V23.5016C19.2674 22.285 19.8105 21.1954 20.6674 20.4617Z" fill="#0068A3"/>
</svg>
