<svg width="41" height="40" viewBox="0 0 41 40" fill="none" xmlns="http://www.w3.org/2000/svg">
<rect x="0.339844" width="40" height="40" rx="20" fill="#FAFAFA"/>
<path d="M13.5537 20.6C13.5445 20.5012 13.5398 20.4012 13.5398 20.3C13.5398 18.5327 14.9725 17.1 16.7398 17.1C17.131 17.1 17.5058 17.1702 17.8522 17.2986C18.3608 14.8445 20.5349 13 23.1398 13C26.1222 13 28.5398 15.4177 28.5398 18.4C28.5398 19.2311 28.3521 20.0183 28.0167 20.7216C29.3577 21.1029 30.3398 22.3367 30.3398 23.8C30.3398 25.5673 28.9072 27 27.1398 27H13.4398V26.9985C11.7188 26.9456 10.3398 25.5339 10.3398 23.8C10.3398 22.0661 11.7188 20.6544 13.4398 20.6015V20.6H13.5537Z" fill="#1B99D5"/>
</svg>
