<svg width="41" height="40" viewBox="0 0 41 40" fill="none" xmlns="http://www.w3.org/2000/svg">
<rect x="0.669922" width="40" height="40" rx="20" fill="#FAFAFA"/>
<path d="M21.0712 10.1519C20.9091 9.94935 20.601 9.94935 20.4389 10.1519L18.0424 13.1476C17.8303 13.4127 18.019 13.8054 18.3585 13.8054H19.9453V22.0925L16.2003 20.7561V18.3835C16.628 18.092 16.9088 17.601 16.9088 17.0443C16.9088 16.1499 16.1838 15.4249 15.2894 15.4249C14.395 15.4249 13.6699 16.1499 13.6699 17.0443C13.6699 17.6846 14.0415 18.2382 14.5809 18.501V21.3268C14.5809 21.6691 14.7961 21.9744 15.1185 22.0895L19.9453 23.812L19.9453 26.9777C19.4613 27.2577 19.1356 27.7811 19.1356 28.3805C19.1356 29.2749 19.8607 30 20.7551 30C21.6495 30 22.3745 29.2749 22.3745 28.3805C22.3745 27.7811 22.0488 27.2577 21.5648 26.9777L21.5648 25.0851L26.3295 23.806C26.6833 23.711 26.9292 23.3903 26.9292 23.0239V20.3845H27.3341C27.5577 20.3845 27.739 20.2032 27.739 19.9796V17.5504C27.739 17.3268 27.5577 17.1455 27.3341 17.1455H24.9049C24.6813 17.1455 24.5001 17.3268 24.5001 17.5504V19.9796C24.5001 20.2032 24.6813 20.3845 24.9049 20.3845H25.3098V22.4029L21.5648 23.4083V13.8054H23.1516C23.4911 13.8054 23.6798 13.4127 23.4677 13.1476L21.0712 10.1519Z" fill="#F79C09"/>
</svg>
