<svg width="40" height="40" viewBox="0 0 40 40" fill="none" xmlns="http://www.w3.org/2000/svg">
<rect width="40" height="40" rx="20" fill="#FAFAFA"/>
<g clip-path="url(#clip0_2426_89490)">
<path d="M20.3359 23.8575C18.048 23.8575 16.1878 21.996 16.1878 19.7093C16.1878 17.4226 18.048 15.5612 20.3359 15.5612C22.6239 15.5612 24.4841 17.4213 24.4841 19.7093C24.4841 21.9973 22.6226 23.8575 20.3359 23.8575ZM20.3359 17.6352C19.1926 17.6352 18.2618 18.566 18.2618 19.7093C18.2618 20.8526 19.1926 21.7834 20.3359 21.7834C21.4793 21.7834 22.41 20.8526 22.41 19.7093C22.41 18.566 21.4793 17.6352 20.3359 17.6352Z" fill="#00D38D"/>
<path d="M26.3093 26.1234C26.0617 26.1234 25.8141 26.0352 25.6157 25.8563C25.1906 25.4726 25.1556 24.8167 25.5393 24.3915C26.6982 23.1056 27.3359 21.4424 27.3359 19.7093C27.3359 17.9762 26.6982 16.313 25.5393 15.0258C25.1556 14.6006 25.1906 13.9447 25.6157 13.561C26.0409 13.1773 26.6969 13.2123 27.0806 13.6374C28.583 15.3058 29.41 17.4615 29.41 19.708C29.41 21.9545 28.583 24.1115 27.0806 25.7786C26.8757 26.0054 26.5932 26.1221 26.3093 26.1221V26.1234Z" fill="#00D38D"/>
<path d="M29.97 29.4199C29.7224 29.4199 29.4748 29.3317 29.2765 29.1528C28.8513 28.7691 28.8163 28.1132 29.2 27.688C31.1743 25.496 32.2619 22.6623 32.2619 19.7093C32.2619 16.7564 31.1743 13.9227 29.2 11.7306C28.8163 11.3054 28.8513 10.6495 29.2765 10.2658C29.7017 9.8821 30.3576 9.9171 30.7413 10.3423C33.0591 12.9154 34.3359 16.2417 34.3359 19.7093C34.3359 23.1769 33.0591 26.5019 30.7413 29.0764C30.5365 29.3032 30.2539 29.4199 29.97 29.4199Z" fill="#00D38D"/>
<path d="M14.3626 26.1233C14.0787 26.1233 13.7961 26.0079 13.5913 25.7798C12.0889 24.1114 11.2619 21.9557 11.2619 19.7092C11.2619 17.4627 12.0889 15.307 13.5913 13.6387C13.975 13.2135 14.6309 13.1785 15.0561 13.5622C15.4813 13.9459 15.5163 14.6018 15.1326 15.027C13.9737 16.3129 13.3359 17.9761 13.3359 19.7105C13.3359 21.445 13.9737 23.1068 15.1326 24.394C15.5163 24.8192 15.4813 25.4751 15.0561 25.8589C14.8578 26.0377 14.6102 26.1259 14.3626 26.1259V26.1233Z" fill="#00D38D"/>
<path d="M10.7019 29.4199C10.418 29.4199 10.1354 29.3046 9.93057 29.0764C7.61279 26.5033 6.33594 23.1757 6.33594 19.7094C6.33594 16.2431 7.61279 12.9168 9.93057 10.3436C10.3143 9.91844 10.9702 9.88344 11.3954 10.2671C11.8206 10.6508 11.8556 11.3068 11.4719 11.732C9.4976 13.924 8.41001 16.7577 8.41001 19.7107C8.41001 22.6636 9.4976 25.4973 11.4719 27.6894C11.8556 28.1146 11.8206 28.7705 11.3954 29.1542C11.197 29.3331 10.9495 29.4212 10.7019 29.4212V29.4199Z" fill="#00D38D"/>
</g>
<defs>
<clipPath id="clip0_2426_89490">
<rect width="28" height="19.4198" fill="white" transform="translate(6.33594 10)"/>
</clipPath>
</defs>
</svg>
