<svg width="40" height="40" viewBox="0 0 40 40" fill="none" xmlns="http://www.w3.org/2000/svg">
<rect width="40" height="40" rx="20" fill="#FAFAFA"/>
<path d="M28.7708 12.4865L20.7708 9.15313C20.5271 9.05204 20.2659 9 20.0021 9C19.7383 9 19.477 9.05204 19.2333 9.15313L11.2333 12.4865C10.4875 12.7948 10 13.524 10 14.3323C10 22.6031 14.7708 28.3198 19.2292 30.1781C19.7208 30.3823 20.275 30.3823 20.7667 30.1781C24.3375 28.6906 30 23.5531 30 14.3323C30 13.524 29.5125 12.7948 28.7708 12.4865ZM20.0042 27.5948L20 11.7198L27.3292 14.774C27.1917 21.0823 23.9083 25.6531 20.0042 27.5948Z" fill="#1C24ED"/>
</svg>
